<?xml version="1.0" standalone="no"?>
<!DOCTYPE svg PUBLIC "-//W3C//DTD SVG 20010904//EN"
 "http://www.w3.org/TR/2001/REC-SVG-20010904/DTD/svg10.dtd">
<svg version="1.0" xmlns="http://www.w3.org/2000/svg"
 width="500.000000pt" height="500.000000pt" viewBox="0 0 500.000000 500.000000"
 preserveAspectRatio="xMidYMid meet">

<g transform="translate(0.000000,500.000000) scale(0.100000,-0.100000)"
fill="#000000" stroke="none">
<path d="M0 2500 l0 -2500 2500 0 2500 0 0 2500 0 2500 -2500 0 -2500 0 0
-2500z m2600 1990 c0 -12 -28 -25 -36 -17 -9 9 6 27 22 27 8 0 14 -5 14 -10z
m-220 -150 c0 -13 -7 -20 -20 -20 -23 0 -26 10 -8 28 18 18 28 15 28 -8z m358
3 c-2 -10 -10 -18 -18 -18 -8 0 -16 8 -18 18 -2 12 3 17 18 17 15 0 20 -5 18
-17z m-873 -43 c3 -5 -1 -10 -9 -10 -9 0 -16 5 -16 10 0 6 4 10 9 10 6 0 13
-4 16 -10z m515 -56 c0 -14 -21 -19 -33 -7 -9 9 13 34 24 27 5 -3 9 -12 9 -20z
m305 -35 c0 -17 21 -27 58 -28 18 -1 27 4 27 14 0 8 9 15 20 15 11 0 20 -4 20
-10 0 -22 8 -25 90 -42 47 -9 118 -27 159 -40 69 -21 75 -25 92 -63 10 -22 19
-45 19 -51 0 -7 -37 -1 -97 16 -87 25 -100 26 -115 13 -18 -16 -38 -10 -38 12
0 15 -14 20 -84 30 -42 6 -50 4 -63 -14 -11 -17 -18 -19 -34 -11 -10 6 -19 17
-19 25 0 21 -229 20 -387 -1 -65 -8 -131 -16 -148 -18 -16 -2 -46 -6 -66 -10
-31 -7 -35 -11 -32 -31 7 -32 -16 -43 -37 -17 l-17 20 -59 -24 c-32 -13 -59
-24 -59 -24 0 0 0 -15 0 -32 0 -27 -4 -34 -23 -36 -17 -3 -25 2 -29 18 -7 25
-13 23 -98 -26 -145 -83 -182 -111 -189 -139 -6 -23 -10 -26 -36 -20 -19 4
-30 3 -30 -4 0 -6 -5 -11 -11 -11 -21 0 -104 -82 -104 -103 0 -14 -7 -21 -24
-22 -40 -3 -197 -204 -285 -367 -25 -45 -46 -79 -46 -75 0 12 55 117 106 204
25 43 37 70 27 60 -22 -19 -33 -14 -33 16 0 16 5 19 29 14 27 -6 32 -2 54 36
56 94 216 273 315 349 37 29 52 47 52 64 0 20 5 24 33 24 36 1 115 44 98 54
-19 12 -12 33 12 40 13 4 26 1 31 -8 16 -23 73 10 80 47 6 29 6 29 31 13 22
-14 29 -15 53 -3 91 46 320 102 464 113 67 5 85 10 81 20 -8 22 25 28 52 10
13 -9 44 -16 69 -16 40 0 44 2 39 21 -5 17 -2 20 23 16 17 -2 29 -10 29 -18z
m255 1 c0 -5 -2 -10 -4 -10 -3 0 -8 5 -11 10 -3 6 -1 10 4 10 6 0 11 -4 11
-10z m-1400 -24 c0 -16 -18 -31 -27 -22 -8 8 5 36 17 36 5 0 10 -6 10 -14z
m200 -46 c0 -13 -7 -20 -20 -20 -19 0 -27 20 -13 33 13 14 33 6 33 -13z m240
5 c0 -8 -4 -15 -10 -15 -5 0 -10 7 -10 15 0 8 5 15 10 15 6 0 10 -7 10 -15z
m590 -115 c0 -5 -4 -10 -10 -10 -5 0 -10 5 -10 10 0 6 5 10 10 10 6 0 10 -4
10 -10z m-290 -29 c0 -11 -5 -23 -11 -27 -15 -9 -33 12 -26 30 9 23 37 20 37
-3z m-843 -65 c-4 -9 -13 -16 -22 -16 -18 0 -19 5 -4 32 13 24 35 9 26 -16z
m1683 6 c0 -4 -5 -13 -12 -20 -18 -18 -28 -15 -28 8 0 13 7 20 20 20 11 0 20
-4 20 -8z m-1630 -77 c0 -8 -6 -15 -14 -15 -17 0 -28 14 -19 24 12 12 33 6 33
-9z m275 -75 c3 -5 -1 -10 -10 -10 -9 0 -13 5 -10 10 3 6 8 10 10 10 2 0 7 -4
10 -10z m-295 -140 c0 -5 -4 -10 -9 -10 -6 0 -13 5 -16 10 -3 6 1 10 9 10 9 0
16 -4 16 -10z m-440 -20 c0 -5 -4 -10 -10 -10 -5 0 -10 5 -10 10 0 6 5 10 10
10 6 0 10 -4 10 -10z m508 -28 c2 -14 -2 -22 -12 -22 -19 0 -29 17 -22 36 8
22 30 12 34 -14z m-328 -32 c0 -5 -4 -10 -10 -10 -5 0 -10 5 -10 10 0 6 5 10
10 10 6 0 10 -4 10 -10z m167 -56 c9 -24 -11 -38 -37 -24 -17 9 -19 14 -9 26
15 19 38 18 46 -2z m-367 -84 c0 -13 -7 -20 -20 -20 -19 0 -27 20 -13 33 13
14 33 6 33 -13z m-195 -70 c0 -7 -6 -15 -12 -17 -8 -3 -13 4 -13 17 0 13 5 20
13 18 6 -3 12 -11 12 -18z m463 -27 c13 -26 4 -43 -24 -43 -26 0 -40 20 -30
45 8 21 43 19 54 -2z m-200 -39 c4 -25 -24 -40 -44 -23 -10 8 -11 15 -1 30 15
25 41 20 45 -7z m40 -121 c-4 -22 -22 -20 -26 1 -2 10 3 16 13 16 10 0 15 -7
13 -17z m-253 -39 c0 -21 -32 -31 -48 -15 -8 8 -6 15 9 26 24 18 39 14 39 -11z
m355 16 c0 -5 -4 -10 -10 -10 -5 0 -10 5 -10 10 0 6 5 10 10 10 6 0 10 -4 10
-10z m-189 -37 c-12 -20 -14 -14 -5 12 4 9 9 14 11 11 3 -2 0 -13 -6 -23z
m653 -65 c80 -24 136 -108 136 -206 0 -53 -32 -154 -70 -220 -17 -29 -62 -86
-100 -126 -50 -53 -66 -76 -58 -84 6 -6 8 -18 4 -28 -6 -15 -8 -16 -24 0 -24
21 -25 21 -73 -11 -22 -14 -72 -38 -112 -52 -63 -23 -72 -29 -72 -51 0 -34
-29 -33 -33 1 -3 22 -9 28 -41 33 -46 7 -64 25 -59 63 2 22 13 33 49 51 l46
23 12 164 c6 91 18 200 26 242 8 43 15 79 15 81 0 10 -50 -28 -106 -81 -130
-121 -234 -319 -179 -341 22 -8 18 -26 -5 -26 -50 0 -50 82 2 183 53 107 131
197 240 278 36 27 69 56 72 65 4 10 13 13 25 9 10 -3 41 3 68 14 83 33 168 39
237 19z m1411 -54 c53 -25 119 -103 145 -170 31 -81 38 -210 16 -302 -36 -144
-115 -232 -209 -232 -44 0 -54 4 -82 34 -17 19 -38 56 -46 83 -16 58 -16 177
0 254 11 52 10 60 -8 90 -37 60 -22 160 32 217 40 44 95 53 152 26z m-869
-186 c-12 -71 -26 -210 -25 -253 l0 -40 17 40 c28 65 50 102 66 108 20 8 26
-1 26 -42 0 -56 14 -68 37 -34 11 15 24 39 27 53 16 55 29 80 44 80 11 0 13
-8 9 -36 l-6 -36 25 27 c31 34 44 24 51 -39 3 -26 10 -49 15 -52 13 -8 58 36
58 57 0 29 49 79 77 79 21 0 24 -4 21 -27 -2 -17 -15 -35 -34 -48 -25 -17 -30
-25 -22 -38 13 -24 29 -21 76 13 43 31 62 37 62 21 0 -14 -53 -56 -88 -70 -26
-11 -36 -11 -60 2 -26 13 -30 12 -40 -3 -14 -23 -47 -31 -68 -15 -10 7 -20 32
-23 56 l-6 44 -28 -48 c-22 -37 -34 -48 -47 -44 -11 3 -26 -3 -36 -14 -33 -37
-73 -14 -75 43 -1 21 -2 21 -15 -7 -7 -16 -21 -54 -30 -83 -16 -53 -39 -76
-54 -52 -4 7 -11 44 -14 82 -8 81 -19 84 -56 15 -14 -26 -40 -60 -57 -76 -29
-26 -33 -36 -33 -80 0 -53 -13 -68 -24 -28 -3 12 -9 68 -13 125 -4 72 -9 100
-17 92 -25 -25 -96 -1 -96 33 0 7 -9 -3 -20 -20 -12 -21 -28 -33 -41 -33 -20
0 -21 4 -16 46 8 73 53 122 100 110 27 -6 38 -36 14 -36 -22 0 -6 -74 17 -78
19 -4 66 34 66 52 0 34 23 86 37 86 13 0 14 -7 9 -37 -3 -21 -8 -65 -11 -98
l-5 -60 15 39 c8 21 20 45 26 52 15 19 46 18 57 -2 7 -13 12 -14 29 -3 16 9
22 27 26 78 8 90 24 141 44 141 13 0 14 -7 9 -42z m1140 15 c-24 -104 -36
-203 -34 -270 l3 -78 37 75 c20 41 40 93 45 115 5 24 14 41 24 43 14 3 17 -7
15 -70 -1 -60 2 -73 16 -76 21 -4 98 76 98 103 0 12 6 30 14 41 23 30 36 7 26
-46 -5 -25 -9 -61 -9 -80 0 -34 0 -34 15 -15 9 11 27 44 40 73 17 38 29 52 44
52 11 0 20 5 20 10 0 6 7 10 16 10 13 0 15 -10 13 -52 -4 -84 -1 -98 19 -98
24 0 67 46 95 101 23 46 67 73 88 52 14 -14 -7 -58 -37 -74 -27 -14 -28 -42
-3 -47 27 -5 84 41 89 73 7 39 40 48 40 11 0 -24 3 -26 50 -26 28 0 50 -4 50
-10 0 -5 -15 -10 -32 -10 -18 0 -38 -4 -44 -8 -16 -11 -34 -48 -34 -71 0 -12
-7 -21 -15 -21 -10 0 -15 11 -15 35 l0 35 -42 -22 c-40 -21 -42 -21 -71 -4
-30 17 -30 17 -61 -12 -43 -42 -70 -48 -95 -23 -21 21 -26 44 -22 111 2 32 0
30 -23 -25 -45 -105 -109 -144 -123 -74 l-5 29 -29 -24 c-46 -39 -69 -42 -94
-13 l-22 25 -27 -55 c-29 -60 -50 -74 -74 -49 -31 30 -18 266 19 364 5 12 16
22 25 22 13 0 15 -6 10 -27z m122 -26 c4 -20 -25 -34 -40 -19 -15 15 -1 44 19
40 10 -2 19 -11 21 -21z m292 -2 c0 -18 -5 -25 -20 -25 -15 0 -20 7 -20 25 0
18 5 25 20 25 15 0 20 -7 20 -25z m365 -881 c-49 -134 -50 -135 -36 -144 16
-10 -5 -47 -30 -53 -10 -3 -33 -37 -52 -78 -32 -70 -101 -187 -130 -219 -7 -8
-25 -34 -41 -57 -47 -70 -245 -254 -346 -322 -223 -149 -493 -245 -765 -272
-60 -6 -132 -14 -160 -18 -27 -4 -61 -4 -75 0 -14 4 -48 7 -77 8 -178 3 -475
88 -650 185 l-52 29 15 29 c11 22 20 28 32 22 9 -4 25 -7 34 -8 9 0 15 -3 12
-7 -2 -4 3 -10 12 -13 8 -3 12 -2 9 4 -4 6 6 5 20 -2 18 -8 29 -9 33 -1 12 18
44 12 39 -8 -3 -13 6 -21 37 -33 65 -25 140 -46 145 -41 2 3 9 1 15 -4 12 -10
129 -35 212 -46 l51 -6 -5 29 c-3 24 0 31 17 37 30 9 44 -3 39 -36 -3 -18 1
-30 10 -34 22 -8 160 -6 166 4 3 4 28 6 55 3 59 -5 102 3 98 20 -3 17 44 23
54 7 6 -10 25 -9 93 6 47 9 86 21 86 26 0 4 12 7 28 7 15 0 41 5 57 12 17 6
46 13 65 16 103 13 407 203 535 333 28 28 54 51 59 51 24 0 221 234 210 251
-3 6 5 20 19 32 32 28 138 239 168 335 13 41 25 69 27 64 1 -5 -14 -54 -33
-108z m-2398 54 l33 -32 0 32 c0 18 5 32 10 32 6 0 10 -22 10 -50 0 -58 -11
-63 -52 -23 l-28 27 0 -27 c0 -15 -4 -27 -10 -27 -5 0 -10 23 -10 50 0 28 3
50 7 50 4 0 22 -14 40 -32z m113 -8 c0 -38 2 -40 30 -40 17 0 30 -4 30 -10 0
-5 -18 -10 -40 -10 l-40 0 0 50 c0 28 5 50 10 50 6 0 10 -18 10 -40z m171 24
c16 -20 1 -48 -30 -52 -11 -2 -21 -10 -21 -18 0 -8 -7 -14 -15 -14 -11 0 -15
12 -15 50 l0 50 34 0 c18 0 39 -7 47 -16z m129 -24 c0 -36 3 -40 25 -40 14 0
25 -4 25 -10 0 -5 -18 -10 -40 -10 l-40 0 0 50 c0 38 4 50 15 50 11 0 15 -11
15 -40z m150 31 c0 -6 -4 -13 -10 -16 -5 -3 -10 -17 -10 -31 0 -13 5 -24 10
-24 6 0 10 -4 10 -10 0 -5 -16 -10 -35 -10 -19 0 -35 5 -35 10 0 6 5 10 10 10
6 0 10 11 10 24 0 14 -4 28 -10 31 -21 13 -9 25 25 25 19 0 35 -4 35 -9z m110
-6 c0 -9 -10 -16 -27 -16 l-28 -2 28 -4 c34 -5 36 -33 2 -33 -16 0 -25 -6 -25
-15 0 -8 -7 -15 -15 -15 -11 0 -15 11 -15 43 0 52 4 57 47 57 23 0 33 -5 33
-15z m115 0 c0 -5 -13 -13 -30 -16 l-30 -7 28 -1 c34 -1 36 -21 2 -21 -14 0
-25 -4 -25 -10 0 -5 11 -10 24 -10 14 0 28 -4 31 -10 4 -6 -10 -10 -34 -10
l-41 0 0 51 0 50 38 -3 c20 -2 37 -7 37 -13z m169 9 c28 -11 17 -29 -16 -29
-26 0 -33 -4 -33 -20 0 -16 6 -20 33 -19 37 2 45 -20 10 -29 -51 -14 -89 50
-52 87 16 17 33 20 58 10z m140 -10 c25 -24 20 -61 -10 -81 -24 -15 -29 -15
-53 -2 -32 18 -39 54 -15 80 21 23 57 25 78 3z m124 -29 c26 -54 26 -55 7 -55
-8 0 -15 5 -15 10 0 14 -33 13 -48 -2 -6 -6 -15 -9 -18 -5 -9 9 29 97 42 97 5
0 20 -20 32 -45z m131 36 c22 -14 4 -28 -29 -23 -29 4 -31 2 -28 -19 2 -18 9
-24 30 -24 36 -1 44 -11 20 -24 -35 -19 -82 10 -82 50 0 16 39 49 58 49 9 0
23 -4 31 -9z m71 -11 c0 -13 7 -20 20 -20 13 0 20 7 20 20 0 11 7 20 15 20 11
0 15 -12 15 -50 0 -38 -4 -50 -15 -50 -8 0 -15 7 -15 15 0 8 -9 15 -20 15 -11
0 -20 -7 -20 -15 0 -8 -7 -15 -15 -15 -11 0 -15 12 -15 50 0 38 4 50 15 50 8
0 15 -9 15 -20z m239 11 c7 -5 10 -14 6 -20 -5 -9 -10 -9 -21 0 -8 6 -14 7
-14 2 0 -15 22 -32 35 -27 7 3 14 -5 17 -19 4 -22 1 -26 -29 -30 -55 -9 -84
13 -64 51 5 9 12 25 15 35 6 18 32 22 55 8z m911 -69 c0 -25 -35 -45 -49 -28
-17 20 -2 46 25 46 16 0 24 -6 24 -18z m-380 -42 c0 -5 -4 -10 -10 -10 -5 0
-10 5 -10 10 0 6 5 10 10 10 6 0 10 -4 10 -10z m105 -9 c7 -12 -12 -24 -25
-16 -11 7 -4 25 10 25 5 0 11 -4 15 -9z m-2315 -71 c0 -15 7 -20 25 -20 18 0
25 5 25 20 0 11 5 20 10 20 6 0 10 -22 10 -50 0 -27 -4 -50 -10 -50 -5 0 -10
7 -10 15 0 9 -9 15 -25 15 -16 0 -25 -6 -25 -15 0 -8 -7 -15 -15 -15 -11 0
-15 11 -15 43 0 24 3 47 7 50 12 13 23 7 23 -13z m133 3 c18 -17 19 -17 32 0
12 16 35 24 35 11 0 -3 -9 -17 -20 -31 -11 -14 -20 -34 -20 -44 0 -11 -4 -19
-10 -19 -5 0 -10 7 -10 16 0 9 -9 27 -20 41 -32 41 -24 59 13 26z m165 8 c8
-4 12 -19 10 -32 -2 -18 -10 -25 -30 -27 -16 -2 -28 -9 -28 -18 0 -8 -4 -14
-10 -14 -5 0 -10 23 -10 50 0 48 1 50 28 50 15 0 33 -4 40 -9z m94 -23 l27
-33 1 33 c0 52 24 34 28 -21 4 -56 -15 -63 -53 -19 l-24 27 -1 -27 c0 -18 -5
-28 -15 -28 -11 0 -15 11 -15 43 0 67 12 73 52 25z m182 13 c24 -26 17 -62
-15 -80 -24 -13 -29 -13 -53 2 -16 11 -26 27 -26 42 0 50 60 73 94 36z m126 4
c0 -8 -7 -15 -15 -15 -10 0 -15 -11 -15 -35 0 -24 -5 -35 -15 -35 -10 0 -15
10 -15 34 0 21 -6 36 -15 40 -30 11 -14 26 30 26 33 0 45 -4 45 -15z m50 -5
c0 -15 7 -20 25 -20 18 0 25 5 25 20 0 11 5 20 10 20 6 0 10 -22 10 -50 0 -27
-4 -50 -10 -50 -5 0 -10 7 -10 15 0 9 -9 15 -25 15 -16 0 -25 -6 -25 -15 0 -8
-4 -15 -10 -15 -5 0 -10 23 -10 50 0 28 5 50 10 50 6 0 10 -9 10 -20z m190 5
c0 -9 -10 -16 -27 -16 l-28 -2 28 -4 c34 -5 36 -23 2 -23 -14 0 -25 -4 -25
-10 0 -5 11 -10 25 -10 14 0 25 -4 25 -10 0 -5 -18 -10 -40 -10 l-40 0 0 43
c0 52 4 57 47 57 23 0 33 -5 33 -15z m121 -6 c7 -15 8 -24 0 -32 -7 -7 -7 -16
0 -29 7 -14 6 -18 -6 -18 -9 0 -18 7 -21 15 -4 8 -12 15 -20 15 -8 0 -14 -7
-14 -15 0 -8 -4 -15 -10 -15 -5 0 -10 23 -10 50 l0 50 35 0 c25 0 37 -6 46
-21z m117 -24 c26 -54 26 -55 7 -55 -8 0 -15 5 -15 10 0 14 -33 13 -48 -2 -6
-6 -15 -9 -18 -5 -9 9 29 97 42 97 5 0 20 -20 32 -45z m120 36 c8 -4 12 -19
10 -32 -2 -18 -10 -25 -30 -27 -16 -2 -28 -9 -28 -18 0 -8 -4 -14 -10 -14 -5
0 -10 23 -10 50 0 48 1 50 28 50 15 0 33 -4 40 -9z m112 -6 c0 -8 -4 -15 -10
-15 -5 0 -10 -11 -10 -25 0 -14 5 -25 10 -25 6 0 10 -4 10 -10 0 -5 -13 -10
-30 -10 -16 0 -30 5 -30 10 0 6 5 10 10 10 6 0 10 11 10 25 0 14 -4 25 -10 25
-5 0 -10 7 -10 15 0 10 10 15 30 15 20 0 30 -5 30 -15z m109 6 c7 -5 10 -14 6
-20 -5 -9 -10 -9 -21 0 -10 8 -18 9 -25 2 -7 -7 0 -12 20 -16 22 -5 31 -12 31
-26 0 -28 -32 -44 -65 -31 -35 13 -22 31 18 25 l32 -5 -32 15 c-48 22 -43 62
7 64 8 0 21 -3 29 -8z m121 -6 c0 -8 -7 -15 -15 -15 -10 0 -15 -11 -15 -35 0
-19 -4 -35 -10 -35 -5 0 -10 15 -10 34 0 26 -5 35 -21 39 -33 9 -12 27 32 27
28 0 39 -4 39 -15z m554 -80 c9 -25 -5 -45 -30 -45 -26 0 -40 20 -30 45 3 8
16 15 30 15 13 0 26 -7 30 -15z m423 -52 c-3 -3 -11 -2 -17 2 -8 5 -7 11 2 22
12 15 13 14 16 -1 2 -10 1 -20 -1 -23z m-174 -69 c-6 -16 -29 -19 -38 -4 -4 6
-1 17 5 26 15 18 42 0 33 -22z m-353 -78 c0 -22 -24 -38 -38 -24 -20 20 -14
38 13 38 15 0 25 -6 25 -14z m144 -67 c-3 -5 -10 -7 -15 -3 -5 3 -7 10 -3 15
3 5 10 7 15 3 5 -3 7 -10 3 -15z m-304 -34 c0 -12 -13 -35 -21 -35 -12 0 -31
39 -24 50 6 9 45 -4 45 -15z m130 -15 c0 -23 -10 -26 -28 -8 -18 18 -15 28 8
28 13 0 20 -7 20 -20z m360 0 c0 -5 -4 -10 -10 -10 -5 0 -10 5 -10 10 0 6 5
10 10 10 6 0 10 -4 10 -10z m-440 -40 c0 -5 -4 -10 -10 -10 -5 0 -10 5 -10 10
0 6 5 10 10 10 6 0 10 -4 10 -10z m-82 -103 c4 -20 -25 -34 -39 -20 -14 14 1
45 20 41 9 -2 17 -11 19 -21z m-213 -36 c3 -5 1 -12 -5 -16 -5 -3 -10 1 -10 9
0 18 6 21 15 7z m85 -76 c0 -8 -7 -15 -15 -15 -8 0 -15 7 -15 15 0 8 7 15 15
15 8 0 15 -7 15 -15z m210 0 c0 -8 -6 -15 -14 -15 -17 0 -28 14 -19 24 12 12
33 6 33 -9z m-416 -58 c26 -19 17 -51 -16 -55 -31 -4 -48 29 -28 53 15 18 21
19 44 2z m466 -6 c0 -11 -5 -23 -11 -27 -16 -9 -30 18 -17 33 15 19 28 16 28
-6z m-1670 -60 c0 -21 -26 -36 -36 -20 -6 11 13 39 27 39 5 0 9 -9 9 -19z
m835 -36 c0 -11 -8 -21 -17 -23 -14 -3 -18 3 -18 23 0 20 4 26 18 23 9 -2 17
-12 17 -23z m193 13 c20 -20 14 -38 -13 -38 -18 0 -25 5 -25 18 0 32 17 41 38
20z m-1058 -58 c0 -5 -5 -10 -11 -10 -5 0 -7 5 -4 10 3 6 8 10 11 10 2 0 4 -4
4 -10z m560 0 c0 -5 -4 -10 -10 -10 -5 0 -10 5 -10 10 0 6 5 10 10 10 6 0 10
-4 10 -10z m-370 -30 c0 -26 -14 -32 -36 -15 -19 15 -19 15 0 30 22 17 36 11
36 -15z m700 0 c0 -5 -4 -10 -10 -10 -5 0 -10 5 -10 10 0 6 5 10 10 10 6 0 10
-4 10 -10z m523 -34 c8 -20 -20 -43 -35 -28 -14 14 -3 42 16 42 7 0 16 -6 19
-14z m-1603 -21 c0 -8 -7 -15 -15 -15 -16 0 -20 12 -8 23 11 12 23 8 23 -8z
m1345 -5 c3 -5 -1 -10 -9 -10 -9 0 -16 5 -16 10 0 6 4 10 9 10 6 0 13 -4 16
-10z m447 -32 c-9 -9 -15 -9 -24 0 -10 10 -10 15 2 22 20 12 38 -6 22 -22z
m-1832 -42 c0 -12 -10 -14 -38 -7 -2 1 0 6 3 11 9 15 35 12 35 -4z m430 -30
c0 -11 -19 -15 -25 -6 -3 5 1 10 9 10 9 0 16 -2 16 -4z m574 -4 c8 -13 -11
-35 -23 -28 -16 10 -14 36 3 36 8 0 17 -4 20 -8z m506 -42 c0 -5 -4 -10 -10
-10 -5 0 -10 5 -10 10 0 6 5 10 10 10 6 0 10 -4 10 -10z m-497 -47 c9 -9 -12
-33 -29 -33 -8 0 -14 9 -14 20 0 19 28 28 43 13z m-358 -33 c0 -22 -39 -19
-43 3 -3 15 1 18 20 15 12 -2 23 -10 23 -18z m-205 -70 c0 -5 -4 -10 -10 -10
-5 0 -10 5 -10 10 0 6 5 10 10 10 6 0 10 -4 10 -10z m348 -62 c-7 -19 -38 -22
-38 -4 0 10 9 16 21 16 12 0 19 -5 17 -12z"/>
<path d="M1458 2994 c-49 -16 -79 -31 -82 -42 -22 -74 -68 -484 -55 -495 2 -3
52 -7 110 -10 l106 -6 52 46 c72 63 147 173 171 251 70 225 -59 335 -302 256z"/>
<path d="M1327 2413 c-4 -3 -7 -22 -7 -41 0 -32 2 -34 25 -28 52 13 136 56
130 66 -7 11 -138 14 -148 3z"/>
<path d="M1229 2380 c-24 -20 -24 -20 -5 -35 35 -27 56 -19 56 20 0 41 -16 45
-51 15z"/>
<path d="M2971 2951 c-17 -16 -35 -41 -41 -55 -17 -46 -11 -136 10 -136 4 0
15 21 25 48 21 57 31 70 45 56 8 -8 3 -31 -14 -77 l-25 -67 27 -14 c15 -8 50
-17 77 -21 71 -9 85 -15 60 -25 -26 -10 -132 5 -151 21 -20 16 -21 13 -33 -61
-29 -178 14 -306 103 -303 67 2 127 69 166 184 32 92 25 239 -14 324 -43 95
-113 155 -180 155 -13 0 -38 -13 -55 -29z"/>
<path d="M2071 2594 c-12 -27 -11 -28 4 -12 10 9 16 21 13 28 -2 7 -10 -1 -17
-16z"/>
<path d="M1780 965 c0 -7 61 -37 66 -33 2 3 -12 12 -31 21 -19 9 -35 15 -35
12z"/>
<path d="M1980 1960 c0 -5 7 -10 15 -10 8 0 15 5 15 10 0 6 -7 10 -15 10 -8 0
-15 -4 -15 -10z"/>
<path d="M2786 1965 c-22 -22 -9 -47 23 -43 32 4 40 33 12 47 -15 8 -23 7 -35
-4z"/>
<path d="M2930 1950 c0 -5 5 -10 11 -10 5 0 7 5 4 10 -3 6 -8 10 -11 10 -2 0
-4 -4 -4 -10z"/>
<path d="M3360 1930 c0 -5 5 -10 11 -10 5 0 7 5 4 10 -3 6 -8 10 -11 10 -2 0
-4 -4 -4 -10z"/>
<path d="M1980 1780 c0 -5 6 -10 14 -10 8 0 18 5 21 10 3 6 -3 10 -14 10 -12
0 -21 -4 -21 -10z"/>
<path d="M2245 1786 c-24 -17 -13 -46 19 -46 29 0 40 24 20 45 -19 18 -16 18
-39 1z"/>
<path d="M2730 1780 c0 -5 9 -10 20 -10 11 0 20 5 20 10 0 6 -9 10 -20 10 -11
0 -20 -4 -20 -10z"/>
<path d="M2870 1770 c0 -5 5 -10 11 -10 5 0 7 5 4 10 -3 6 -8 10 -11 10 -2 0
-4 -4 -4 -10z"/>
<path d="M2980 1780 c0 -5 6 -10 14 -10 8 0 18 5 21 10 3 6 -3 10 -14 10 -12
0 -21 -4 -21 -10z"/>
</g>
</svg>
